<svg width="24" height="24" viewBox="0 0 24 24" fill="none" xmlns="http://www.w3.org/2000/svg">
<path d="M22.3998 4.28574C21.5173 4.28574 20.7998 5.0546 20.7998 6C20.7998 6.31716 20.8858 6.61026 21.0266 6.86529L16.8074 11.3859C16.5694 11.235 16.2958 11.1429 15.9998 11.1429C15.705 11.1429 15.4318 11.2346 15.1942 11.3846L13.3742 9.43461C13.5142 9.18002 13.5998 8.88732 13.5998 8.57147C13.5998 7.62602 12.8822 6.85721 11.9999 6.85721C11.1174 6.85721 10.3999 7.62607 10.3999 8.57147C10.3999 8.77377 10.4387 8.96492 10.4991 9.14492L2.63997 17.5654C2.35957 17.3057 1.99877 17.1428 1.59997 17.1428V2.14287C1.59997 1.43402 2.13837 0.857157 2.79995 0.857157H21.1997C21.8613 0.857157 22.3997 1.43402 22.3997 2.14287V3.00003C22.3997 3.23658 22.5789 3.42858 22.7997 3.42858C23.0205 3.42858 23.1997 3.23658 23.1997 3.00003V2.14287C23.1997 0.96132 22.3025 0 21.1997 0H2.79995C1.69718 0 0.799959 0.96127 0.799959 2.14287V17.3816C0.323996 17.679 0 18.2254 0 18.8571C0 19.8026 0.717601 20.5714 1.59997 20.5714C2.48238 20.5714 3.19993 19.8025 3.19993 18.8571C3.19993 18.6548 3.16112 18.4637 3.10075 18.2837L10.9599 9.86311C11.2403 10.1228 11.6011 10.2857 11.9999 10.2857C12.2967 10.2857 12.5711 10.1931 12.8094 10.0419L14.6274 11.9897C14.4862 12.2451 14.3998 12.5391 14.3998 12.8571C14.3998 13.8026 15.1174 14.5714 15.9998 14.5714C16.8822 14.5714 17.5998 13.8025 17.5998 12.8571C17.5998 12.5399 17.5137 12.2468 17.373 11.9918L21.5922 7.47123C21.8301 7.62211 22.1037 7.71421 22.3998 7.71421V21.857C22.3998 22.5659 21.8614 23.1427 21.1998 23.1427H19.9998V11.5713C19.9998 11.3348 19.8206 11.1428 19.5998 11.1428C19.379 11.1428 19.1998 11.3348 19.1998 11.5713V23.1427H16.7999V15.8571C16.7999 15.6206 16.6207 15.4286 16.3999 15.4286C16.1791 15.4286 15.9999 15.6206 15.9999 15.8571V23.1428H13.5999V12.4286C13.5999 12.192 13.4207 12 13.1999 12C12.9792 12 12.8 12.192 12.8 12.4286V23.1428H10.4V12.4286C10.4 12.192 10.2208 12 10 12C9.77923 12 9.60003 12.192 9.60003 12.4286V23.1428H7.20006V15.8571C7.20006 15.6206 7.02086 15.4286 6.80008 15.4286C6.5793 15.4286 6.4001 15.6206 6.4001 15.8571V23.1428H4.00013V21.4286C4.00013 21.192 3.82092 21 3.60015 21C3.37937 21 3.20017 21.192 3.20017 21.4286V23.1428H2.80019C2.1386 23.1428 1.6002 22.566 1.6002 21.8571C1.6002 21.6206 1.421 21.4286 1.20022 21.4286C0.979442 21.4286 0.800241 21.6206 0.800241 21.8571C0.800241 23.0387 1.69742 24 2.80023 24H21.2C22.3028 24 23.2 23.0387 23.2 21.8571V7.4756C23.676 7.17818 24 6.63176 24 6.00005C23.9997 5.0546 23.2821 4.28574 22.3998 4.28574ZM1.59997 19.7143C1.15878 19.7143 0.799959 19.3299 0.799959 18.8571C0.799959 18.3844 1.15874 17.9999 1.59997 17.9999C2.04115 17.9999 2.39997 18.3844 2.39997 18.8571C2.39997 19.3299 2.04119 19.7143 1.59997 19.7143ZM11.9999 9.42858C11.5587 9.42858 11.1999 9.04417 11.1999 8.57142C11.1999 8.09872 11.5586 7.71426 11.9999 7.71426C12.441 7.71426 12.7999 8.09867 12.7999 8.57142C12.7999 9.04417 12.441 9.42858 11.9999 9.42858ZM15.9998 13.7143C15.5586 13.7143 15.1998 13.3299 15.1998 12.8571C15.1998 12.3844 15.5586 11.9999 15.9998 11.9999C16.441 11.9999 16.7998 12.3844 16.7998 12.8571C16.7998 13.3299 16.441 13.7143 15.9998 13.7143ZM22.3998 6.85716C22.1817 6.85716 21.9837 6.76244 21.8394 6.61031C21.8378 6.6086 21.8374 6.60604 21.8358 6.60428C21.8342 6.60258 21.8318 6.60213 21.8301 6.60042C21.6882 6.44568 21.5997 6.23354 21.5997 6C21.5997 5.5273 21.9585 5.14284 22.3998 5.14284C22.841 5.14284 23.1998 5.52725 23.1998 6C23.1998 6.47275 22.8409 6.85716 22.3998 6.85716Z" fill="#BABABA"/>
</svg>
