<svg width="24" height="24" viewBox="0 0 24 24" fill="none" xmlns="http://www.w3.org/2000/svg">
<path d="M18.4985 10.3438L12.6317 1.18021C12.5639 1.07424 12.4705 0.987043 12.3601 0.926647C12.2497 0.86625 12.1259 0.834595 12.0001 0.834595C11.8743 0.834595 11.7505 0.86625 11.6401 0.926647C11.5297 0.987043 11.4363 1.07424 11.3685 1.18021L5.50154 10.3438C4.48442 11.7236 3.93778 13.3938 3.94229 15.108C3.94229 19.551 7.55696 23.1658 12.0001 23.1658C16.4432 23.1658 20.0579 19.5511 20.0579 15.108C20.0624 13.3938 19.5157 11.7235 18.4985 10.3438V10.3438ZM12.0001 21.6658C8.38416 21.6658 5.44229 18.724 5.44229 15.108C5.43845 13.7061 5.88765 12.3405 6.72296 11.2146C6.73293 11.2011 6.74243 11.1873 6.75146 11.1732L12.0001 2.97557L17.2486 11.1733C17.2576 11.1874 17.2671 11.2012 17.2771 11.2147C18.1124 12.3405 18.5617 13.7061 18.5579 15.108C18.5579 18.724 15.616 21.6658 12.0001 21.6658Z" fill="#BABABA"/>
</svg>
