<svg width="24" height="24" viewBox="0 0 24 24" fill="none" xmlns="http://www.w3.org/2000/svg">
<path d="M19.955 6.66934C18.3816 5.09599 16.3771 4.02453 14.1948 3.59044C12.0125 3.15635 9.75048 3.37914 7.69481 4.23063C5.63913 5.08212 3.88212 6.52406 2.64596 8.37412C1.40979 10.2242 0.749993 12.3993 0.75 14.6243V18.7493H7.5V17.2493H2.25V14.6243C2.25 9.24817 6.62386 4.87431 12 4.87431C17.3761 4.87431 21.75 9.24817 21.75 14.6243V17.2493H16.5V18.7493H23.25V14.6243C23.254 13.1463 22.9649 11.6822 22.3993 10.3168C21.8337 8.95131 21.0029 7.71157 19.955 6.66934Z" fill="#BABABA"/>
<path d="M5.25 12.375H3.75V13.875H5.25V12.375Z" fill="#BABABA"/>
<path d="M12.75 6H11.25V7.5H12.75V6Z" fill="#BABABA"/>
<path d="M7.875 7.875H6.375V9.375H7.875V7.875Z" fill="#BABABA"/>
<path d="M20.25 12.375H18.75V13.875H20.25V12.375Z" fill="#BABABA"/>
<path d="M13.9324 15.7087L17.1762 8.95064L15.8238 8.30151L12.5809 15.0578C11.863 14.9148 11.1177 15.0385 10.4846 15.4058C9.85148 15.7731 9.37409 16.3587 9.14194 17.0528C8.90979 17.747 8.93881 18.502 9.22358 19.1762C9.50834 19.8505 10.0293 20.3977 10.6887 20.7153C11.3482 21.0329 12.1008 21.099 12.8055 20.9013C13.5102 20.7036 14.1186 20.2556 14.5166 19.6413C14.9146 19.027 15.0748 18.2887 14.9673 17.5647C14.8597 16.8407 14.4918 16.1808 13.9324 15.7087ZM12.0001 19.5009C11.7035 19.5009 11.4134 19.413 11.1668 19.2481C10.9201 19.0833 10.7278 18.8491 10.6143 18.575C10.5008 18.3009 10.4711 17.9993 10.5289 17.7083C10.5868 17.4173 10.7297 17.1501 10.9395 16.9403C11.1492 16.7305 11.4165 16.5876 11.7075 16.5298C11.9985 16.4719 12.3001 16.5016 12.5742 16.6151C12.8482 16.7286 13.0825 16.9209 13.2473 17.1676C13.4122 17.4143 13.5001 17.7043 13.5001 18.0009C13.4997 18.3986 13.3415 18.7799 13.0603 19.0611C12.7791 19.3423 12.3978 19.5005 12.0001 19.5009Z" fill="#BABABA"/>
</svg>
