<svg width="24" height="24" viewBox="0 0 24 24" fill="none" xmlns="http://www.w3.org/2000/svg">
<path d="M23.1563 9.3125C23.0487 8.97875 22.8509 8.68127 22.5847 8.45299C22.3186 8.22472 21.9944 8.07455 21.6482 8.01912L16.2149 7.13614L13.6962 2.24173C13.5358 1.93015 13.2926 1.66877 12.9934 1.48629C12.6942 1.30381 12.3505 1.20728 12.0001 1.20728C11.6496 1.20728 11.3059 1.30381 11.0067 1.48629C10.7075 1.66877 10.4643 1.93015 10.3039 2.24173L7.7852 7.13614L2.35206 8.01912C2.00615 8.07542 1.68244 8.22591 1.41644 8.45409C1.15043 8.68226 0.952414 8.97929 0.844113 9.31259C0.735813 9.6459 0.721413 10.0026 0.802493 10.3435C0.883574 10.6845 1.057 10.9965 1.30375 11.2454L5.18031 15.1533L4.34125 20.5933C4.28741 20.9398 4.33017 21.2945 4.46483 21.6182C4.59949 21.942 4.82084 22.2224 5.10452 22.4285C5.3882 22.6346 5.72323 22.7585 6.07277 22.7865C6.4223 22.8145 6.77279 22.7456 7.08569 22.5873L12.0001 20.1081L16.9146 22.5873C17.2275 22.7453 17.5779 22.8139 17.9273 22.7858C18.2767 22.7576 18.6116 22.6337 18.8952 22.4277C19.1787 22.2216 19.4001 21.9414 19.5348 21.6178C19.6696 21.2942 19.7125 20.9398 19.659 20.5933L18.82 15.1533L22.6965 11.2454C22.944 10.997 23.118 10.685 23.1992 10.3438C23.2803 10.0027 23.2655 9.64574 23.1563 9.3125ZM21.6315 10.1891L17.2219 14.6342L18.1765 20.8221C18.1883 20.8962 18.1794 20.9722 18.1507 21.0415C18.1221 21.1109 18.0747 21.1709 18.014 21.2151C17.9533 21.2592 17.8816 21.2856 17.8068 21.2914C17.7319 21.2973 17.657 21.2823 17.5901 21.2481L12.0001 18.428L6.40993 21.2482C6.34311 21.2824 6.26814 21.2974 6.19332 21.2915C6.1185 21.2857 6.04676 21.2593 5.98604 21.2152C5.92533 21.171 5.87801 21.111 5.84934 21.0416C5.82066 20.9723 5.81174 20.8963 5.82358 20.8222L6.77819 14.6342L2.3687 10.189C2.31604 10.1358 2.27904 10.0691 2.26175 9.99632C2.24447 9.92349 2.24756 9.8473 2.27069 9.77611C2.29382 9.70492 2.33609 9.64147 2.39289 9.59271C2.44968 9.54395 2.5188 9.51176 2.59267 9.49967L8.77272 8.49533L11.6377 2.92812C11.6719 2.86153 11.7239 2.80566 11.7878 2.76666C11.8517 2.72765 11.9252 2.70702 12.0001 2.70702C12.0749 2.70702 12.1484 2.72765 12.2123 2.76666C12.2762 2.80566 12.3282 2.86153 12.3624 2.92812L15.2274 8.49533L21.4075 9.49967C21.4813 9.51176 21.5504 9.54395 21.6072 9.59271C21.664 9.64147 21.7063 9.70492 21.7294 9.77611C21.7526 9.8473 21.7557 9.92349 21.7384 9.99632C21.7211 10.0691 21.6841 10.1358 21.6314 10.189L21.6315 10.1891Z" fill="#BABABA"/>
</svg>
