<svg width="24" height="24" viewBox="0 0 24 24" fill="none" xmlns="http://www.w3.org/2000/svg">
<path d="M16.2184 1.96885L8.41546 9.77176C5.15037 13.0451 2.67777 17.0222 1.18705 21.3986C1.11596 21.6056 1.10464 21.8285 1.15438 22.0416C1.20412 22.2547 1.31292 22.4496 1.4683 22.6037L1.47238 22.6078C1.5805 22.7167 1.7091 22.8032 1.85077 22.8623C1.99245 22.9213 2.1444 22.9518 2.29789 22.9519C2.42705 22.9519 2.55532 22.9306 2.67758 22.8889C7.05401 21.3982 11.0312 18.9256 14.3045 15.6605L22.1071 7.85762C22.888 7.07673 23.3267 6.01761 23.3267 4.91325C23.3267 3.8089 22.888 2.74978 22.1072 1.96888C21.7205 1.58222 21.2615 1.2755 20.7563 1.06624C20.2511 0.856976 19.7096 0.74927 19.1628 0.749268C18.0584 0.749263 16.9993 1.18796 16.2184 1.96885ZM13.2436 14.5998C10.2943 17.5413 6.74219 19.8082 2.83208 21.2439C4.26782 17.3338 6.53461 13.7816 9.4761 10.8324L14.1243 6.18423L17.8918 9.95167L13.2436 14.5998ZM21.0465 6.79698L18.9524 8.89103L15.185 5.12359L17.279 3.0295C17.5263 2.78153 17.82 2.58474 18.1434 2.45039C18.4667 2.31603 18.8134 2.24675 19.1636 2.2465C19.5138 2.24624 19.8605 2.31503 20.1841 2.44892C20.5077 2.5828 20.8017 2.77917 21.0493 3.02677C21.2969 3.27438 21.4932 3.56837 21.6271 3.89194C21.761 4.2155 21.8298 4.56228 21.8295 4.91245C21.8293 5.26262 21.76 5.6093 21.6256 5.93267C21.4912 6.25603 21.2945 6.54974 21.0465 6.79698Z" fill="#BABABA"/>
</svg>
